# xmcd
#
# Track frame offsets: 
#        150
#        13443
#        26733
#        37584
#        47572
#        58069
#        69082
#        81960
#        92687
#        102534
#        116216
#        128512
#
# Disc length: 4436 seconds
#
# Revision: 0
# Processed by: cddbd v1.5.2PL0 Copyright (c) Steve Scherf et al.
# Submitted via: ExactAudioCopy v1.0b1
#
DISCID=9911520c
DTITLE=Merle Haggard - Swinging Doors
DYEAR=1900
DGENRE=Country
TTITLE0=Swinging Doors
TTITLE1=If I Could Be Him
TTITLE2=Longer You Wait
TTITLE3=I'll Look Over You
TTITLE4=I Can't Stand Me
TTITLE5=Girl Turned Ripe
TTITLE6=Bottle Let Me Down
TTITLE7=No More You and Me
TTITLE8=Somebody Else You've Known
TTITLE9=High On a Hilltop
TTITLE10=This Town's Not Big Enough
TTITLE11=Shade Tree Fix-it Man
EXTD=
EXTT0=
EXTT1=
EXTT2=
EXTT3=
EXTT4=
EXTT5=
EXTT6=
EXTT7=
EXTT8=
EXTT9=
EXTT10=
EXTT11=
PLAYORDER=
